<svg xmlns="http://www.w3.org/2000/svg" xmlns:xlink="http://www.w3.org/1999/xlink" width="500" zoomAndPan="magnify" viewBox="0 0 375 112.499997" height="150" preserveAspectRatio="xMidYMid meet" version="1.0"><defs><g/></defs><g fill="#ffffff" fill-opacity="1"><g transform="translate(37.032031, 94.828533)"><g><path d="M 36.347656 -72.515625 L 48.132812 -60.636719 L 59.828125 -72.515625 L 48.132812 -84.300781 Z M 47.863281 -60.277344 L 36.167969 -71.972656 L 36.167969 -24.203125 L 47.863281 -24.203125 Z M 60.007812 -71.972656 L 48.3125 -60.277344 L 48.3125 -24.019531 L 60.007812 -12.414062 Z M 35.808594 -60.097656 L 11.875 -60.097656 L 0.179688 -48.492188 L 35.808594 -48.492188 Z M 35.808594 -47.953125 L 0.179688 -47.953125 L 11.875 -36.347656 L 35.808594 -36.347656 Z M 11.515625 -24.203125 L 11.515625 -36.078125 L -0.0898438 -47.683594 L -0.0898438 -12.414062 Z M 23.660156 -35.988281 L 12.054688 -35.988281 L 12.054688 -24.203125 L 23.660156 -24.203125 Z M 47.953125 -23.839844 L 12.324219 -23.839844 L 23.929688 -12.144531 L 59.738281 -12.144531 Z M 23.570312 -11.875 L 11.785156 -23.660156 L 0 -11.875 L 11.785156 -0.179688 Z M 59.738281 -11.695312 L 23.929688 -11.695312 L 12.324219 0 L 47.953125 0 Z M 59.738281 -11.695312 "/></g></g></g><g fill="#ffffff" fill-opacity="1"><g transform="translate(102.525406, 94.828533)"><g><path d="M 60.367188 -49.03125 L 48.671875 -60.726562 L 12.59375 -60.726562 L 24.472656 -49.03125 Z M 12.144531 -60.636719 L 0.269531 -48.761719 L 12.144531 -36.796875 L 24.109375 -48.761719 Z M 24.472656 -48.492188 L 12.59375 -36.796875 L 48.671875 -36.796875 L 60.367188 -48.492188 Z M 48.851562 -0.359375 L 60.726562 -12.234375 L 60.726562 -48.132812 L 48.851562 -36.4375 Z M 12.144531 -36.347656 L 0.269531 -24.292969 L 12.144531 -12.414062 L 24.109375 -24.292969 Z M 12.59375 -36.347656 L 24.472656 -24.5625 L 36.347656 -24.5625 L 36.347656 -36.347656 Z M 36.796875 -12.234375 L 48.582031 -0.359375 L 48.582031 -36.347656 L 36.796875 -36.347656 Z M 0.179688 -23.839844 L 0.179688 -12.234375 L 11.875 -0.449219 L 11.875 -12.144531 Z M 24.109375 -23.839844 L 12.324219 -12.144531 L 12.324219 -0.449219 L 24.109375 -12.234375 Z M 24.5625 -12.324219 L 36.347656 -12.324219 L 36.347656 -18.351562 L 24.5625 -18.351562 Z M 24.472656 -11.964844 L 12.59375 0 L 48.3125 0 L 36.4375 -11.964844 Z M 24.472656 -11.964844 "/></g></g></g><g fill="#ffffff" fill-opacity="1"><g transform="translate(168.738484, 94.828533)"><g><path d="M 60.367188 -49.03125 L 48.671875 -60.726562 L 12.59375 -60.726562 L 24.472656 -49.03125 Z M 12.144531 -60.636719 L 0.269531 -48.761719 L 12.144531 -36.796875 L 24.109375 -48.761719 Z M 24.472656 -48.492188 L 12.59375 -36.796875 L 48.671875 -36.796875 L 60.367188 -48.492188 Z M 48.851562 -0.359375 L 60.726562 -12.234375 L 60.726562 -48.132812 L 48.851562 -36.4375 Z M 12.144531 -36.347656 L 0.269531 -24.292969 L 12.144531 -12.414062 L 24.109375 -24.292969 Z M 12.59375 -36.347656 L 24.472656 -24.5625 L 36.347656 -24.5625 L 36.347656 -36.347656 Z M 36.796875 -12.234375 L 48.582031 -0.359375 L 48.582031 -36.347656 L 36.796875 -36.347656 Z M 0.179688 -23.839844 L 0.179688 -12.234375 L 11.875 -0.449219 L 11.875 -12.144531 Z M 24.109375 -23.839844 L 12.324219 -12.144531 L 12.324219 -0.449219 L 24.109375 -12.234375 Z M 24.5625 -12.324219 L 36.347656 -12.324219 L 36.347656 -18.351562 L 24.5625 -18.351562 Z M 24.472656 -11.964844 L 12.59375 0 L 48.3125 0 L 36.4375 -11.964844 Z M 24.472656 -11.964844 "/></g></g></g><g fill="#ffffff" fill-opacity="1"><g transform="translate(234.951561, 94.828533)"><g><path d="M 11.875 -60.636719 L -0.179688 -48.671875 L 11.875 -36.527344 L 23.839844 -48.671875 Z M 12.324219 -60.636719 L 24.203125 -48.851562 L 36.347656 -48.851562 L 48.132812 -60.636719 Z M 49.121094 -60.636719 L 61.089844 -48.851562 L 97.433594 -48.851562 L 85.46875 -60.636719 Z M 36.617188 -11.875 L 48.492188 0.0898438 L 48.492188 -60.277344 L 36.617188 -48.492188 Z M 48.761719 0.0898438 L 60.816406 -11.875 L 60.816406 -48.492188 L 48.761719 -60.277344 Z M 36.167969 -36.527344 L 36.167969 -48.3125 L 24.203125 -48.3125 L 12.324219 -36.527344 Z M 61.089844 -48.3125 L 61.089844 -36.527344 L 85.46875 -36.527344 L 97.433594 -48.3125 Z M -0.269531 -11.875 L 11.515625 0.0898438 L 11.515625 -36.167969 L -0.269531 -48.132812 Z M 85.738281 0.0898438 L 97.613281 -11.875 L 97.613281 -48.132812 L 85.738281 -36.167969 Z M 11.964844 -36.167969 L 11.964844 0.0898438 L 23.839844 -11.875 L 23.839844 -36.167969 Z M 73.414062 -11.875 L 85.46875 0.0898438 L 85.46875 -36.167969 L 73.414062 -36.167969 Z M 73.414062 -11.875 "/></g></g></g></svg>